<svg xmlns="http://www.w3.org/2000/svg" xmlns:svg="http://www.w3.org/2000/svg" id="svg3361" width="933.82" height="926.756" version="1.1"><g id="layer1" transform="translate(137.98271,-47.774792)"><g id="g3568" transform="translate(-24.510638,166.97872)"><g id="g3576" transform="translate(520.85105,-355.40426)"><path style="color:#000;fill:#d44117;fill-opacity:1;fill-rule:nonzero;stroke:none;stroke-width:.75;marker:none;visibility:visible;display:inline;overflow:visible;enable-background:accumulate" id="path2901" d="m 354.28571,212.36218 c 0,42.60483 -34.53803,77.14286 -77.14286,77.14286 -42.60482,0 -77.14286,-34.53803 -77.14286,-77.14286 0,-42.60482 34.53804,-77.14286 77.14286,-77.14286 42.60483,0 77.14286,34.53804 77.14286,77.14286 z" transform="translate(-451.15172,100.98101)"/><path style="color:#000;fill:#d44117;fill-opacity:1;fill-rule:nonzero;stroke:none;stroke-width:1.76986504;marker:none;visibility:visible;display:inline;overflow:visible;enable-background:accumulate" id="path2903" d="m -174.02449,395.4433 c -93.9975,0 -171.33183,71.22361 -181,162.65625 l 29.39636,-12.99873 c 23.56859,-62.54476 76.71759,-115.09502 151.60364,-115.09502 74.88605,0 132.39495,49.30058 150.55166,117.26148 L 7.00676,558.09955 C -2.66496,466.66691 -80.02699,395.4433 -174.02449,395.4433 z"/><path id="path2911" d="m -198.53125,560.25 c -59.20404,0 -107.1875,85.74932 -107.1875,191.5 0,3.23443 0.0706,6.43353 0.15625,9.625 21.5526,-36.70337 61.39132,-61.34375 107.03125,-61.34375 45.63036,0 85.50674,24.62188 107.0625,61.3125 0.08505,-3.18103 0.125,-6.37 0.125,-9.59375 0,-105.75068 -47.98346,-191.5 -107.1875,-191.5 z" transform="translate(24.510638,-166.97872)" style="color:#000;fill:#d44117;fill-opacity:1;fill-rule:nonzero;stroke:none;stroke-width:.89422607;marker:none;visibility:visible;display:inline;overflow:visible;enable-background:accumulate"/></g><g id="g3581" transform="matrix(-1,0,0,-1,172.83332,1037.6249)" style="fill:#6bb427;fill-opacity:1"><path id="path3583" d="m 354.28571,212.36218 c 0,42.60483 -34.53803,77.14286 -77.14286,77.14286 -42.60482,0 -77.14286,-34.53803 -77.14286,-77.14286 0,-42.60482 34.53804,-77.14286 77.14286,-77.14286 42.60483,0 77.14286,34.53804 77.14286,77.14286 z" transform="translate(-451.15172,100.98101)" style="color:#000;fill:#6bb427;fill-opacity:1;fill-rule:nonzero;stroke:none;stroke-width:.75;marker:none;visibility:visible;display:inline;overflow:visible;enable-background:accumulate"/><path id="path3585" d="m -174.02449,395.4433 c -93.9975,0 -171.33183,71.22361 -181,162.65625 l 34.8125,-14.08196 c 18.15245,-74.46026 71.30145,-114.01179 146.1875,-114.01179 74.88605,0 129.145268,42.80121 147.301977,111.84534 L 7.00676,558.09955 C -2.66496,466.66691 -80.02699,395.4433 -174.02449,395.4433 z" style="color:#000;fill:#6bb427;fill-opacity:1;fill-rule:nonzero;stroke:none;stroke-width:1.76986504;marker:none;visibility:visible;display:inline;overflow:visible;enable-background:accumulate"/><path style="color:#000;fill:#6bb427;fill-opacity:1;fill-rule:nonzero;stroke:none;stroke-width:.89422607;marker:none;visibility:visible;display:inline;overflow:visible;enable-background:accumulate" id="path3587" d="m -198.53125,560.25 c -59.20404,0 -107.1875,85.74932 -107.1875,191.5 0,3.23443 0.0706,6.43353 0.15625,9.625 21.5526,-36.70337 61.39132,-61.34375 107.03125,-61.34375 45.63036,0 85.50674,24.62188 107.0625,61.3125 0.08505,-3.18103 0.125,-6.37 0.125,-9.59375 0,-105.75068 -47.98346,-191.5 -107.1875,-191.5 z" transform="translate(24.510638,-166.97872)"/></g><g id="g3625" transform="matrix(0,1,-1,0,1043.3568,515.11911)" style="fill:#f2a438;fill-opacity:1"><path id="path3627" d="m 354.28571,212.36218 c 0,42.60483 -34.53803,77.14286 -77.14286,77.14286 -42.60482,0 -77.14286,-34.53803 -77.14286,-77.14286 0,-42.60482 34.53804,-77.14286 77.14286,-77.14286 42.60483,0 77.14286,34.53804 77.14286,77.14286 z" transform="translate(-451.15172,100.98101)" style="color:#000;fill:#f2a438;fill-opacity:1;fill-rule:nonzero;stroke:none;stroke-width:.75;marker:none;visibility:visible;display:inline;overflow:visible;enable-background:accumulate"/><path id="path3629" d="m -174.02449,395.4433 c -93.9975,0 -171.33183,71.22361 -181,162.65625 l 34.8125,0 c 9.48663,-72.29381 71.30145,-128.09375 146.1875,-128.09375 74.88605,0 136.72786,55.79994 146.21875,128.09375 l 34.8125,0 C -2.66496,466.66691 -80.02699,395.4433 -174.02449,395.4433 z" style="color:#000;fill:#f2a438;fill-opacity:1;fill-rule:nonzero;stroke:none;stroke-width:1.76986504;marker:none;visibility:visible;display:inline;overflow:visible;enable-background:accumulate"/><path style="color:#000;fill:#f2a438;fill-opacity:1;fill-rule:nonzero;stroke:none;stroke-width:.89422607;marker:none;visibility:visible;display:inline;overflow:visible;enable-background:accumulate" id="path3631" d="m -198.53125,560.25 c -59.20404,0 -107.1875,85.74932 -107.1875,191.5 0,3.23443 0.0706,6.43353 0.15625,9.625 21.5526,-36.70337 61.39132,-61.34375 107.03125,-61.34375 45.63036,0 85.50674,24.62188 107.0625,61.3125 0.08505,-3.18103 0.125,-6.37 0.125,-9.59375 0,-105.75068 -47.98346,-191.5 -107.1875,-191.5 z" transform="translate(24.510638,-166.97872)"/></g><g id="g3633" transform="matrix(0,-1,1,0,-349.6724,167.10147)" style="fill:#5775b1;fill-opacity:1"><path style="color:#000;fill:#5775b1;fill-opacity:1;fill-rule:nonzero;stroke:none;stroke-width:.75;marker:none;visibility:visible;display:inline;overflow:visible;enable-background:accumulate" id="path3635" d="m 354.28571,212.36218 c 0,42.60483 -34.53803,77.14286 -77.14286,77.14286 -42.60482,0 -77.14286,-34.53803 -77.14286,-77.14286 0,-42.60482 34.53804,-77.14286 77.14286,-77.14286 42.60483,0 77.14286,34.53804 77.14286,77.14286 z" transform="translate(-451.15172,100.98101)"/><path style="color:#000;fill:#5775b1;fill-opacity:1;fill-rule:nonzero;stroke:none;stroke-width:1.76986504;marker:none;visibility:visible;display:inline;overflow:visible;enable-background:accumulate" id="path3637" d="m -174.02449,395.4433 c -93.9975,0 -171.33183,71.22361 -181,162.65625 l 34.8125,0 c 9.48663,-72.29381 71.30145,-128.09375 146.1875,-128.09375 74.88605,0 136.72786,55.79994 146.21875,128.09375 l 34.8125,0 C -2.66496,466.66691 -80.02699,395.4433 -174.02449,395.4433 z"/><path id="path3639" d="m -198.53125,560.25 c -59.20404,0 -107.1875,85.74932 -107.1875,191.5 0,3.23443 0.0706,6.43353 0.15625,9.625 21.5526,-36.70337 61.39132,-61.34375 107.03125,-61.34375 45.63036,0 85.50674,24.62188 107.0625,61.3125 0.08505,-3.18103 0.125,-6.37 0.125,-9.59375 0,-105.75068 -47.98346,-191.5 -107.1875,-191.5 z" transform="translate(24.510638,-166.97872)" style="color:#000;fill:#5775b1;fill-opacity:1;fill-rule:nonzero;stroke:none;stroke-width:.89422607;marker:none;visibility:visible;display:inline;overflow:visible;enable-background:accumulate"/></g></g></g><metadata id="metadata43"/></svg>