<svg xmlns="http://www.w3.org/2000/svg" xmlns:svg="http://www.w3.org/2000/svg" xmlns:xlink="http://www.w3.org/1999/xlink" id="svg2" width="662.376" height="261.294" version="1.1"><defs id="defs4"><marker id="Arrow1Lend" orient="auto" refX="0" refY="0" style="overflow:visible"><path id="path4222" d="M 0,0 5,-5 -12.5,0 5,5 0,0 z" transform="matrix(-0.8,0,0,-0.8,-10,0)" style="fill-rule:evenodd;stroke:#000;stroke-width:1pt"/></marker><marker id="Arrow1Lstart" orient="auto" refX="0" refY="0" style="overflow:visible"><path id="path4219" d="M 0,0 5,-5 -12.5,0 5,5 0,0 z" transform="matrix(0.8,0,0,0.8,10,0)" style="fill-rule:evenodd;stroke:#000;stroke-width:1pt"/></marker><linearGradient id="linearGradient1506" x1=".052" x2=".783" y1=".977" y2=".008"><stop id="stop1508" offset="0" stop-opacity=".096"/><stop id="stop1510" offset="1" stop-opacity="0"/></linearGradient><linearGradient id="linearGradient1499" x1="687.96" x2="330.878" y1="236.127" y2="418.539" gradientTransform="scale(0.98901431,1.0111077)" gradientUnits="userSpaceOnUse"><stop id="stop1502" offset="0" stop-color="#fff"/><stop id="stop1504" offset="1" stop-color="#fff" stop-opacity="0"/></linearGradient><linearGradient id="linearGradient1497" x1="741.654" x2="622.352" y1="169.437" y2="287.726" gradientTransform="scale(0.95527032,1.0468241)" gradientUnits="userSpaceOnUse" xlink:href="#linearGradient1492"/><linearGradient id="linearGradient1495" x1="728.962" x2="351.706" y1="230.073" y2="689.86" gradientTransform="scale(0.95542385,1.0466559)" gradientUnits="userSpaceOnUse" xlink:href="#linearGradient1492"/><linearGradient id="linearGradient1492"><stop id="stop1493" offset="0" stop-color="#dadada"/><stop id="stop1496" offset=".349" stop-color="#f1f1f1"/><stop id="stop1494" offset="1" stop-color="#f0f0f0"/></linearGradient><linearGradient id="linearGradient3200" x1="207.87" x2="544.791" y1="836.028" y2="389.184" gradientTransform="scale(0.94317646,1.060247)" gradientUnits="userSpaceOnUse" xlink:href="#linearGradient1506"/><linearGradient id="linearGradient3202" x1="204.626" x2="546.292" y1="839.622" y2="386.484" gradientTransform="scale(0.9439523,1.0593756)" gradientUnits="userSpaceOnUse" xlink:href="#linearGradient1506"/><linearGradient id="linearGradient3204" x1="201.395" x2="547.813" y1="843.203" y2="383.763" gradientTransform="scale(0.94468868,1.0585498)" gradientUnits="userSpaceOnUse" xlink:href="#linearGradient1506"/><linearGradient id="linearGradient3206" x1="201.395" x2="547.813" y1="843.203" y2="383.763" gradientTransform="scale(0.94468868,1.0585498)" gradientUnits="userSpaceOnUse" xlink:href="#linearGradient1506"/><linearGradient id="linearGradient3238" x1="207.87" x2="544.791" y1="836.028" y2="389.184" gradientTransform="scale(0.94317646,1.060247)" gradientUnits="userSpaceOnUse" xlink:href="#linearGradient1506"/><linearGradient id="linearGradient3240" x1="204.626" x2="546.292" y1="839.622" y2="386.484" gradientTransform="scale(0.9439523,1.0593756)" gradientUnits="userSpaceOnUse" xlink:href="#linearGradient1506"/><linearGradient id="linearGradient3242" x1="201.395" x2="547.813" y1="843.203" y2="383.763" gradientTransform="scale(0.94468868,1.0585498)" gradientUnits="userSpaceOnUse" xlink:href="#linearGradient1506"/><linearGradient id="linearGradient3244" x1="201.395" x2="547.813" y1="843.203" y2="383.763" gradientTransform="scale(0.94468868,1.0585498)" gradientUnits="userSpaceOnUse" xlink:href="#linearGradient1506"/><linearGradient id="linearGradient3246" x1="728.962" x2="351.706" y1="230.073" y2="689.86" gradientTransform="scale(0.95542385,1.0466559)" gradientUnits="userSpaceOnUse" xlink:href="#linearGradient1492"/><linearGradient id="linearGradient3248" x1="687.96" x2="330.878" y1="236.127" y2="418.539" gradientTransform="scale(0.98901431,1.0111077)" gradientUnits="userSpaceOnUse" xlink:href="#linearGradient1499"/><linearGradient id="linearGradient3250" x1="741.654" x2="622.352" y1="169.437" y2="287.726" gradientTransform="scale(0.95527032,1.0468241)" gradientUnits="userSpaceOnUse" xlink:href="#linearGradient1492"/><linearGradient id="linearGradient3252" x1="687.96" x2="330.878" y1="236.127" y2="418.539" gradientTransform="scale(0.98901431,1.0111077)" gradientUnits="userSpaceOnUse" xlink:href="#linearGradient1499"/><filter id="filter4065" color-interpolation-filters="sRGB"><feGaussianBlur id="feGaussianBlur4067" stdDeviation=".531"/></filter><linearGradient id="linearGradient4145" x1="201.395" x2="547.813" y1="843.203" y2="383.763" gradientTransform="scale(0.94468868,1.0585498)" gradientUnits="userSpaceOnUse" xlink:href="#linearGradient1506"/><linearGradient id="linearGradient4211" x1="201.395" x2="547.813" y1="843.203" y2="383.763" gradientTransform="scale(0.94468868,1.0585498)" gradientUnits="userSpaceOnUse" xlink:href="#linearGradient1506"/></defs><metadata id="metadata7"/><g id="layer1" transform="translate(-71.820189,-93.501976)"><g id="layer1-9" transform="matrix(0.16036632,0,0,0.16036632,333.40432,155.24718)" style="fill:none;stroke:#000;stroke-width:3.54329991;stroke-linecap:round"><path style="color:#000" id="path5166" d="M 104,80 39.584,79.76 7.584,23.855 40,-31.811 l 64.416,0.23995 32,55.906 -32.42,55.665 z" transform="translate(-1510.6,13.988)"/><path style="color:#000" id="path5549" d="M 104,80 39.584,79.76 7.584,23.855 40,-31.811 l 64.416,0.23995 32,55.906 -32.42,55.665 z" transform="translate(-1414.6,69.988)"/><path style="color:#000" id="path5551" d="M 104,80 39.584,79.76 7.584,23.855 40,-31.811 l 64.416,0.23995 32,55.906 -32.42,55.665 z" transform="translate(-1414.2,-41.772)"/><path style="color:#000" id="path5553" d="M 104,80 39.584,79.76 7.584,23.855 40,-31.811 l 64.416,0.23995 32,55.906 -32.42,55.665 z" transform="translate(-1318.2,14.228)"/><path style="color:#000" id="path5555" d="M 104,80 39.584,79.76 7.584,23.855 40,-31.811 l 64.416,0.23995 32,55.906 -32.42,55.665 z" transform="translate(-1414.2,182.32)"/><path style="color:#000" id="path5557" d="M 104,80 39.584,79.76 7.584,23.855 40,-31.811 l 64.416,0.23995 32,55.906 -32.42,55.665 z" transform="translate(-1318.2,238.32)"/><path style="color:#000" id="path5559" d="M 104,80 39.584,79.76 7.584,23.855 40,-31.811 l 64.416,0.23995 32,55.906 -32.42,55.665 z" transform="translate(-1317.8,126.56)"/><path style="color:#000" id="path5561" d="M 104,80 39.584,79.76 7.584,23.855 40,-31.811 l 64.416,0.23995 32,55.906 -32.42,55.665 z" transform="translate(-1221.8,182.56)"/><path style="color:#000" id="path5563" d="M 104,80 39.584,79.76 7.584,23.855 40,-31.811 l 64.416,0.23995 32,55.906 -32.42,55.665 z" transform="translate(-1223.1,69.654)"/><path style="color:#000" id="path5565" d="M 104,80 39.584,79.76 7.584,23.855 40,-31.811 l 64.416,0.23995 32,55.906 -32.42,55.665 z" transform="translate(-1127.1,125.65)"/><path style="color:#000" id="path5567" d="M 104,80 39.584,79.76 7.584,23.855 40,-31.811 l 64.416,0.23995 32,55.906 -32.42,55.665 z" transform="translate(-1126.6,13.894)"/><path style="color:#000" id="path5569" d="M 104,80 39.584,79.76 7.584,23.855 40,-31.811 l 64.416,0.23995 32,55.906 -32.42,55.665 z" transform="translate(-1030.6,69.894)"/><path style="color:#000" id="path5571" d="M 104,80 39.584,79.76 7.584,23.855 40,-31.811 l 64.416,0.23995 32,55.906 -32.42,55.665 z" transform="translate(-1126.6,237.99)"/><path style="color:#000" id="path5573" d="M 104,80 39.584,79.76 7.584,23.855 40,-31.811 l 64.416,0.23995 32,55.906 -32.42,55.665 z" transform="translate(-1030.6,293.99)"/><path style="color:#000" id="path5575" d="M 104,80 39.584,79.76 7.584,23.855 40,-31.811 l 64.416,0.23995 32,55.906 -32.42,55.665 z" transform="translate(-1030.2,182.23)"/><path style="color:#000" id="path5577" d="M 104,80 39.584,79.76 7.584,23.855 40,-31.811 l 64.416,0.23995 32,55.906 -32.42,55.665 z" transform="translate(-934.23,238.23)"/><path style="color:#000" id="path5579" d="M 104,80 39.584,79.76 7.584,23.855 40,-31.811 l 64.416,0.23995 32,55.906 -32.42,55.665 z" transform="translate(-1318.2,350.32)"/><path style="color:#000" id="path5581" d="M 104,80 39.584,79.76 7.584,23.855 40,-31.811 l 64.416,0.23995 32,55.906 -32.42,55.665 z" transform="translate(-1222.2,406.32)"/><path style="color:#000" id="path5583" d="M 104,80 39.584,79.76 7.584,23.855 40,-31.811 l 64.416,0.23995 32,55.906 -32.42,55.665 z" transform="translate(-1221.8,294.56)"/><path style="color:#000" id="path5585" d="M 104,80 39.584,79.76 7.584,23.855 40,-31.811 l 64.416,0.23995 32,55.906 -32.42,55.665 z" transform="translate(-1125.8,350.56)"/><path style="color:#000" id="path5587" d="M 104,80 39.584,79.76 7.584,23.855 40,-31.811 l 64.416,0.23995 32,55.906 -32.42,55.665 z" transform="translate(-1221.8,518.66)"/><path style="color:#000" id="path5589" d="M 104,80 39.584,79.76 7.584,23.855 40,-31.811 l 64.416,0.23995 32,55.906 -32.42,55.665 z" transform="translate(-1125.8,574.66)"/><path style="color:#000" id="path5591" d="M 104,80 39.584,79.76 7.584,23.855 40,-31.811 l 64.416,0.23995 32,55.906 -32.42,55.665 z" transform="translate(-1125.4,462.9)"/><path style="color:#000" id="path5593" d="M 104,80 39.584,79.76 7.584,23.855 40,-31.811 l 64.416,0.23995 32,55.906 -32.42,55.665 z" transform="translate(-1029.4,518.9)"/><path style="color:#000" id="path5595" d="M 104,80 39.584,79.76 7.584,23.855 40,-31.811 l 64.416,0.23995 32,55.906 -32.42,55.665 z" transform="translate(-1030.6,405.99)"/><path style="color:#000" id="path5597" d="M 104,80 39.584,79.76 7.584,23.855 40,-31.811 l 64.416,0.23995 32,55.906 -32.42,55.665 z" transform="translate(-934.64,461.99)"/><path style="color:#000" id="path5599" d="M 104,80 39.584,79.76 7.584,23.855 40,-31.811 l 64.416,0.23995 32,55.906 -32.42,55.665 z" transform="translate(-934.23,350.23)"/><path style="color:#000" id="path5601" d="M 104,80 39.584,79.76 7.584,23.855 40,-31.811 l 64.416,0.23995 32,55.906 -32.42,55.665 z" transform="translate(-838.23,406.23)"/><path style="color:#000" id="path5603" d="M 104,80 39.584,79.76 7.584,23.855 40,-31.811 l 64.416,0.23995 32,55.906 -32.42,55.665 z" transform="translate(-934.23,574.32)"/><path style="color:#000" id="path5605" d="M 104,80 39.584,79.76 7.584,23.855 40,-31.811 l 64.416,0.23995 32,55.906 -32.42,55.665 z" transform="translate(-838.23,630.32)"/><path style="color:#000" id="path5607" d="M 104,80 39.584,79.76 7.584,23.855 40,-31.811 l 64.416,0.23995 32,55.906 -32.42,55.665 z" transform="translate(-837.81,518.56)"/><path style="color:#000" id="path5609" d="M 104,80 39.584,79.76 7.584,23.855 40,-31.811 l 64.416,0.23995 32,55.906 -32.42,55.665 z" transform="translate(-741.81,574.56)"/><path style="color:#000" id="path5611" d="M 104,80 39.584,79.76 7.584,23.855 40,-31.811 l 64.416,0.23995 32,55.906 -32.42,55.665 z" transform="translate(-839.48,293.51)"/><path style="color:#000" id="path5613" d="M 104,80 39.584,79.76 7.584,23.855 40,-31.811 l 64.416,0.23995 32,55.906 -32.42,55.665 z" transform="translate(-743.48,349.51)"/><path style="color:#000" id="path5615" d="M 104,80 39.584,79.76 7.584,23.855 40,-31.811 l 64.416,0.23995 32,55.906 -32.42,55.665 z" transform="translate(-743.06,237.75)"/><path style="color:#000" id="path5617" d="M 104,80 39.584,79.76 7.584,23.855 40,-31.811 l 64.416,0.23995 32,55.906 -32.42,55.665 z" transform="translate(-647.06,293.75)"/><path style="color:#000" id="path5619" d="M 104,80 39.584,79.76 7.584,23.855 40,-31.811 l 64.416,0.23995 32,55.906 -32.42,55.665 z" transform="translate(-743.06,461.84)"/><path style="color:#000" id="path5621" d="M 104,80 39.584,79.76 7.584,23.855 40,-31.811 l 64.416,0.23995 32,55.906 -32.42,55.665 z" transform="translate(-647.06,517.84)"/><path style="color:#000" id="path5623" d="M 104,80 39.584,79.76 7.584,23.855 40,-31.811 l 64.416,0.23995 32,55.906 -32.42,55.665 z" transform="translate(-646.64,406.08)"/><path style="color:#000" id="path5625" d="M 104,80 39.584,79.76 7.584,23.855 40,-31.811 l 64.416,0.23995 32,55.906 -32.42,55.665 z" transform="translate(-550.64,462.08)"/><path style="color:#000" id="path5635" d="M 104,80 39.584,79.76 7.584,23.855 40,-31.811 l 64.416,0.23995 32,55.906 -32.42,55.665 z" transform="translate(-550.64,350.08)"/><path style="color:#000" id="path5637" d="M 104,80 39.584,79.76 7.584,23.855 40,-31.811 l 64.416,0.23995 32,55.906 -32.42,55.665 z" transform="translate(-454.64,406.08)"/><path style="color:#000" id="path5639" d="M 104,80 39.584,79.76 7.584,23.855 40,-31.811 l 64.416,0.23995 32,55.906 -32.42,55.665 z" transform="translate(-454.23,294.32)"/><path style="color:#000" id="path5641" d="M 104,80 39.584,79.76 7.584,23.855 40,-31.811 l 64.416,0.23995 32,55.906 -32.42,55.665 z" transform="translate(-358.23,350.32)"/><path style="color:#000" id="path5643" d="M 104,80 39.584,79.76 7.584,23.855 40,-31.811 l 64.416,0.23995 32,55.906 -32.42,55.665 z" transform="translate(-934.64,126.08)"/><path style="color:#000" id="path5645" d="M 104,80 39.584,79.76 7.584,23.855 40,-31.811 l 64.416,0.23995 32,55.906 -32.42,55.665 z" transform="translate(-838.64,182.08)"/><path style="color:#000" id="path5647" d="M 104,80 39.584,79.76 7.584,23.855 40,-31.811 l 64.416,0.23995 32,55.906 -32.42,55.665 z" transform="translate(-838.23,70.323)"/><path style="color:#000" id="path5649" d="M 104,80 39.584,79.76 7.584,23.855 40,-31.811 l 64.416,0.23995 32,55.906 -32.42,55.665 z" transform="translate(-742.23,126.32)"/><path style="color:#000" id="path5653" d="M 104,80 39.584,79.76 7.584,23.855 40,-31.811 l 64.416,0.23995 32,55.906 -32.42,55.665 z" transform="translate(-644.04,71.76)"/><path style="color:#000" id="path5659" d="M 104,80 39.584,79.76 7.584,23.855 40,-31.811 l 64.416,0.23995 32,55.906 -32.42,55.665 z" transform="translate(-1031.1,-42.252)"/><path style="color:#000" id="path5661" d="M 104,80 39.584,79.76 7.584,23.855 40,-31.811 l 64.416,0.23995 32,55.906 -32.42,55.665 z" transform="translate(-935.06,13.748)"/><path style="color:#000" id="path5663" d="M 104,80 39.584,79.76 7.584,23.855 40,-31.811 l 64.416,0.23995 32,55.906 -32.42,55.665 z" transform="translate(-934.64,-98.012)"/><path style="color:#000" id="path5665" d="M 104,80 39.584,79.76 7.584,23.855 40,-31.811 l 64.416,0.23995 32,55.906 -32.42,55.665 z" transform="translate(-838.64,-42.012)"/><path style="color:#000" id="path5667" d="M 104,80 39.584,79.76 7.584,23.855 40,-31.811 l 64.416,0.23995 32,55.906 -32.42,55.665 z" transform="translate(-1510.2,462.23)"/><path style="color:#000" id="path5669" d="M 104,80 39.584,79.76 7.584,23.855 40,-31.811 l 64.416,0.23995 32,55.906 -32.42,55.665 z" transform="translate(-1414.2,518.23)"/><path style="color:#000" id="path5671" d="M 104,80 39.584,79.76 7.584,23.855 40,-31.811 l 64.416,0.23995 32,55.906 -32.42,55.665 z" transform="translate(-1413.8,406.47)"/><path style="color:#000" id="path5673" d="M 104,80 39.584,79.76 7.584,23.855 40,-31.811 l 64.416,0.23995 32,55.906 -32.42,55.665 z" transform="translate(-1317.8,462.47)"/><path style="color:#000" id="path5675" d="M 104,80 39.584,79.76 7.584,23.855 40,-31.811 l 64.416,0.23995 32,55.906 -32.42,55.665 z" transform="translate(-1605.8,294.66)"/><path style="color:#000" id="path5677" d="M 104,80 39.584,79.76 7.584,23.855 40,-31.811 l 64.416,0.23995 32,55.906 -32.42,55.665 z" transform="translate(-1509.8,350.66)"/><path style="color:#000" id="path5679" d="M 104,80 39.584,79.76 7.584,23.855 40,-31.811 l 64.416,0.23995 32,55.906 -32.42,55.665 z" transform="translate(-1509.4,238.9)"/><path style="color:#000" id="path5681" d="M 104,80 39.584,79.76 7.584,23.855 40,-31.811 l 64.416,0.23995 32,55.906 -32.42,55.665 z" transform="translate(-1413.4,294.9)"/><path style="color:#000" id="path5683" d="M 104,80 39.584,79.76 7.584,23.855 40,-31.811 l 64.416,0.23995 32,55.906 -32.42,55.665 z" transform="translate(-1413.8,630.56)"/><path style="color:#000" id="path5685" d="M 104,80 39.584,79.76 7.584,23.855 40,-31.811 l 64.416,0.23995 32,55.906 -32.42,55.665 z" transform="translate(-1317.8,686.56)"/><path style="color:#000" id="path5687" d="M 104,80 39.584,79.76 7.584,23.855 40,-31.811 l 64.416,0.23995 32,55.906 -32.42,55.665 z" transform="translate(-1317.4,574.8)"/><path style="color:#000" id="path5689" d="M 104,80 39.584,79.76 7.584,23.855 40,-31.811 l 64.416,0.23995 32,55.906 -32.42,55.665 z" transform="translate(-1221.4,630.8)"/><path style="color:#000" id="path5691" d="M 104,80 39.584,79.76 7.584,23.855 40,-31.811 l 64.416,0.23995 32,55.906 -32.42,55.665 z" transform="translate(-742.23,686.32)"/><path style="color:#000" id="path5693" d="M 104,80 39.584,79.76 7.584,23.855 40,-31.811 l 64.416,0.23995 32,55.906 -32.42,55.665 z" transform="translate(-646.23,742.32)"/><path style="color:#000" id="path5695" d="M 104,80 39.584,79.76 7.584,23.855 40,-31.811 l 64.416,0.23995 32,55.906 -32.42,55.665 z" transform="translate(-645.81,630.56)"/><path style="color:#000" id="path5697" d="M 104,80 39.584,79.76 7.584,23.855 40,-31.811 l 64.416,0.23995 32,55.906 -32.42,55.665 z" transform="translate(-549.81,686.56)"/><path style="color:#000" id="path5699" d="M 104,80 39.584,79.76 7.584,23.855 40,-31.811 l 64.416,0.23995 32,55.906 -32.42,55.665 z" transform="translate(-1126.2,686.23)"/><path style="color:#000" id="path5701" d="M 104,80 39.584,79.76 7.584,23.855 40,-31.811 l 64.416,0.23995 32,55.906 -32.42,55.665 z" transform="translate(-1030.2,742.23)"/><path style="color:#000" id="path5703" d="M 104,80 39.584,79.76 7.584,23.855 40,-31.811 l 64.416,0.23995 32,55.906 -32.42,55.665 z" transform="translate(-1029.8,630.47)"/><path style="color:#000" id="path5705" d="M 104,80 39.584,79.76 7.584,23.855 40,-31.811 l 64.416,0.23995 32,55.906 -32.42,55.665 z" transform="translate(-933.81,686.47)"/></g><g id="g4101" transform="translate(-48.487322,0)"><g id="g3184" transform="translate(399.59477,127.84569)"><path style="fill:#fff;fill-rule:evenodd;stroke-width:.42649001;stroke-opacity:.36478002" id="path930" d="m 17.159,6.3293 v 146.96 h 134.11 v -110.22 l -33.53,-36.74 -33.525,3e-4 H 17.158 z"/><g style="fill:url(#linearGradient4211);fill-opacity:.75;fill-rule:evenodd;stroke-width:.95407pt" id="g1552" transform="matrix(0.30417,0,0,0.29757,-36.704,-112.49)"><path style="fill:url(#linearGradient3200)" id="path1505" d="M 173.36,408.81 V 897.86 H 608.41 V 531.07 L 499.65,408.81 H 173.36 z"/><path style="fill:url(#linearGradient3202)" id="path1538" d="m 170.12,407.19 v 493.9 H 611.66 V 529.81 C 574.81,488.39 537.98,446.95 501.09,405.56 H 170.12 v 1.63 z"/><path style="fill:url(#linearGradient3204)" id="path1543" d="m 166.88,403.94 v 500.4 H 614.91 V 528.56 C 577.46,486.47 540.02,444.37 502.53,402.31 H 166.88 v 1.63 z"/></g><path style="fill:url(#linearGradient1495);fill-rule:evenodd;stroke:#000;stroke-width:1.4375;stroke-opacity:.36478002" id="rect900" d="M 297.99,136.74 V 632.06 H 750.01 V 260.57 l -113,-123.83 H 297.99 z" transform="matrix(0.29669,0,0,0.29669,-71.196,-34.058)"/><path style="fill:url(#linearGradient3252);fill-rule:evenodd;stroke-width:1pt" id="path1500" d="m 301.31,174.91 -2.04,453.99 h 443.82 l 0.25,-112.22 C 733.42,520.5 633.15,378.49 506.93,384.6 380.59,390.71 413.28,193.23 301.31,174.91 z" transform="matrix(0.29669,0,0,0.29669,-71.196,-34.058)"/><rect style="fill-opacity:.43396002;fill-rule:evenodd;stroke-width:1pt" id="rect1535" width="106.29" height="4.485" x="26.449" y="-137.56" transform="scale(1,-1)"/><rect style="fill-opacity:.43396002;fill-rule:evenodd;stroke-width:1pt" id="rect1536" width="82.906" height="4.485" x="26.449" y="-116.53" transform="scale(1,-1)"/><rect style="fill-opacity:.43396002;fill-rule:evenodd;stroke-width:1pt" id="rect1537" width="99.095" height="4.485" x="26.449" y="-95.51" transform="scale(1,-1)"/><rect style="fill-opacity:.43396002;fill-rule:evenodd;stroke-width:1pt" id="rect1538" width="55.026" height="4.485" x="26.449" y="-74.486" transform="scale(1,-1)"/><rect style="fill-opacity:.43396002;fill-rule:evenodd;stroke-width:1pt" id="rect1539" width="85.604" height="4.485" x="26.449" y="-53.462" transform="scale(1,-1)"/><path style="fill:url(#linearGradient1497);fill-rule:evenodd;stroke-width:.95407pt" id="path906" d="m 750.01,260.57 c -34.07,-10.08 -78.21,-8.65 -111.56,-2.9 5.76,-36.95 6.48,-83.26 -1.44,-120.93 l 113,123.83 z" transform="matrix(0.29669,0,0,0.29669,-71.196,-34.058)"/><rect style="fill-opacity:.43396002;fill-rule:evenodd;stroke-width:1pt" id="rect1541" width="55.026" height="4.485" x="26.449" y="-32.191" transform="scale(1,-1)"/></g><g id="g4077" transform="translate(256.57875,-180.81731)"><text id="text3281" x="209.081" y="455.342" xml:space="preserve" style="font-size:36px;font-style:normal;font-weight:700;line-height:125%;letter-spacing:0;word-spacing:0;opacity:.62948207;fill:#000;fill-opacity:1;stroke:none;filter:url(#filter4065);font-family:Sans;-inkscape-font-specification:Sans Bold"><tspan id="tspan3283" x="209.081" y="455.342">CSV</tspan></text><text style="font-size:36px;font-style:normal;font-weight:700;line-height:125%;letter-spacing:0;word-spacing:0;fill:purple;fill-opacity:1;stroke:none;font-family:Sans;-inkscape-font-specification:Sans Bold" id="text3254" x="207.081" y="453.342" xml:space="preserve"><tspan id="tspan3256" x="207.081" y="453.342">CSV</tspan></text></g></g><g id="g4123" transform="translate(-125.25892,-8.77448)"><g id="g3208" transform="translate(702.91748,136.62017)"><path id="path3210" d="m 17.159,6.3293 v 146.96 h 134.11 v -110.22 l -33.53,-36.74 -33.525,3e-4 H 17.158 z" style="fill:#fff;fill-rule:evenodd;stroke-width:.42649001;stroke-opacity:.36478002"/><g id="g3212" transform="matrix(0.30417,0,0,0.29757,-36.704,-112.49)" style="fill:url(#linearGradient4145);fill-opacity:.75;fill-rule:evenodd;stroke-width:.95407pt"><path id="path3214" d="M 173.36,408.81 V 897.86 H 608.41 V 531.07 L 499.65,408.81 H 173.36 z" style="fill:url(#linearGradient3238)"/><path id="path3216" d="m 170.12,407.19 v 493.9 H 611.66 V 529.81 C 574.81,488.39 537.98,446.95 501.09,405.56 H 170.12 v 1.63 z" style="fill:url(#linearGradient3240)"/><path id="path3218" d="m 166.88,403.94 v 500.4 H 614.91 V 528.56 C 577.46,486.47 540.02,444.37 502.53,402.31 H 166.88 v 1.63 z" style="fill:url(#linearGradient3242)"/></g><path id="path3220" d="M 297.99,136.74 V 632.06 H 750.01 V 260.57 l -113,-123.83 H 297.99 z" transform="matrix(0.29669,0,0,0.29669,-71.196,-34.058)" style="fill:url(#linearGradient3246);fill-rule:evenodd;stroke:#000;stroke-width:1.4375;stroke-opacity:.36478002"/><path id="path3222" d="m 301.31,174.91 -2.04,453.99 h 443.82 l 0.25,-112.22 C 733.42,520.5 633.15,378.49 506.93,384.6 380.59,390.71 413.28,193.23 301.31,174.91 z" transform="matrix(0.29669,0,0,0.29669,-71.196,-34.058)" style="fill:url(#linearGradient3248);fill-rule:evenodd;stroke-width:1pt"/><rect id="rect3224" width="106.29" height="4.485" x="26.449" y="-137.56" transform="scale(1,-1)" style="fill-opacity:.43396002;fill-rule:evenodd;stroke-width:1pt"/><rect id="rect3226" width="82.906" height="4.485" x="26.449" y="-116.53" transform="scale(1,-1)" style="fill-opacity:.43396002;fill-rule:evenodd;stroke-width:1pt"/><rect id="rect3228" width="99.095" height="4.485" x="26.449" y="-95.51" transform="scale(1,-1)" style="fill-opacity:.43396002;fill-rule:evenodd;stroke-width:1pt"/><rect id="rect3230" width="55.026" height="4.485" x="26.449" y="-74.486" transform="scale(1,-1)" style="fill-opacity:.43396002;fill-rule:evenodd;stroke-width:1pt"/><rect id="rect3232" width="85.604" height="4.485" x="26.449" y="-53.462" transform="scale(1,-1)" style="fill-opacity:.43396002;fill-rule:evenodd;stroke-width:1pt"/><path id="path3234" d="m 750.01,260.57 c -34.07,-10.08 -78.21,-8.65 -111.56,-2.9 5.76,-36.95 6.48,-83.26 -1.44,-120.93 l 113,123.83 z" transform="matrix(0.29669,0,0,0.29669,-71.196,-34.058)" style="fill:url(#linearGradient3250);fill-rule:evenodd;stroke-width:.95407pt"/><rect id="rect3236" width="55.026" height="4.485" x="26.449" y="-32.191" transform="scale(1,-1)" style="fill-opacity:.43396002;fill-rule:evenodd;stroke-width:1pt"/></g><g id="g4083" transform="translate(401.03056,-244.45692)"><text style="font-size:36px;font-style:normal;font-weight:700;line-height:125%;letter-spacing:0;word-spacing:0;opacity:.62948207;fill:#000;fill-opacity:1;stroke:none;filter:url(#filter4065);font-family:Sans;-inkscape-font-specification:Sans Bold" id="text4069" x="379.777" y="526.032" xml:space="preserve"><tspan id="tspan4071" x="379.777" y="526.032">MD</tspan></text><text id="text4073" x="376.787" y="524.052" xml:space="preserve" style="font-size:36px;font-style:normal;font-weight:700;line-height:125%;letter-spacing:0;word-spacing:0;fill:purple;fill-opacity:1;stroke:none;font-family:Sans;-inkscape-font-specification:Sans Bold"><tspan id="tspan4075" x="376.787" y="524.052">MD</tspan></text></g></g><text style="font-size:11px;font-style:normal;font-weight:700;text-align:center;line-height:125%;letter-spacing:0;word-spacing:0;text-anchor:middle;fill:#000;fill-opacity:1;stroke:none;font-family:Sans;-inkscape-font-specification:Sans Bold" id="text4089" x="187.638" y="106.859" xml:space="preserve"><tspan id="tspan4091" x="187.638" y="106.859">geography</tspan><tspan id="tspan4093" x="187.638" y="120.609" style="font-weight:400;-inkscape-font-specification:Sans">geograpy.topo.json</tspan></text><text style="font-size:11px;font-style:normal;font-weight:400;text-align:center;line-height:125%;letter-spacing:0;word-spacing:0;text-anchor:middle;fill:#000;fill-opacity:1;stroke:none;font-family:Sans" id="text4095" x="433.714" y="106.859" xml:space="preserve"><tspan id="tspan4097" x="433.714" y="106.859" style="font-weight:700;text-align:center;text-anchor:middle">metric</tspan><tspan id="tspan4099" x="433.714" y="120.609">m1.csv</tspan></text><text id="text4147" x="660.437" y="106.859" xml:space="preserve" style="font-size:11px;font-style:normal;font-weight:400;text-align:center;line-height:125%;letter-spacing:0;word-spacing:0;text-anchor:middle;fill:#000;fill-opacity:1;stroke:none;font-family:Sans"><tspan style="font-weight:700;text-align:center;text-anchor:middle" id="tspan4149" x="660.437" y="106.859">metadata</tspan><tspan id="tspan4151" x="660.437" y="120.609">m1.md</tspan></text><g id="g4189" transform="translate(21.944123,-37.375645)"><rect id="rect4153" width="69.652" height="18.479" x="94.806" y="340.056" style="fill:#fff;fill-opacity:1;stroke:#000;stroke-width:.70359337;stroke-opacity:1"/><rect style="fill:#fff;fill-opacity:1;stroke:#000;stroke-width:.70359337;stroke-opacity:1" id="rect4155" width="69.652" height="18.479" x="166.591" y="340.056"/><text id="text4157" x="99.887" y="352.331" xml:space="preserve" style="font-size:11px;font-style:normal;font-weight:400;line-height:125%;letter-spacing:0;word-spacing:0;fill:#000;fill-opacity:1;stroke:none;font-family:Sans"><tspan id="tspan4159" x="99.887" y="352.331">geography</tspan></text><text id="text4161" x="196.381" y="353.397" xml:space="preserve" style="font-size:11px;font-style:normal;font-weight:400;line-height:125%;letter-spacing:0;word-spacing:0;fill:#000;fill-opacity:1;stroke:none;font-family:Sans"><tspan id="tspan4163" x="196.381" y="353.397">id</tspan></text></g><g id="g4197" transform="translate(-43.391832,-40.406102)"><rect style="fill:#fff;fill-opacity:1;stroke:#000;stroke-width:.70359337;stroke-opacity:1" id="rect4165" width="69.652" height="18.479" x="335.222" y="343.087"/><rect id="rect4167" width="69.652" height="18.479" x="407.007" y="343.087" style="fill:#fff;fill-opacity:1;stroke:#000;stroke-width:.70359337;stroke-opacity:1"/><text style="font-size:11px;font-style:normal;font-weight:400;line-height:125%;letter-spacing:0;word-spacing:0;fill:#000;fill-opacity:1;stroke:none;font-family:Sans" id="text4169" x="365.013" y="356.427" xml:space="preserve"><tspan id="tspan4171" x="365.013" y="356.427">id</tspan></text><text style="font-size:11px;font-style:normal;font-weight:400;line-height:125%;letter-spacing:0;word-spacing:0;fill:#000;fill-opacity:1;stroke:none;font-family:Sans" id="text4173" x="422.024" y="355.111" xml:space="preserve"><tspan id="tspan4175" x="422.024" y="355.111">y_2010</tspan></text><rect style="fill:#fff;fill-opacity:1;stroke:#000;stroke-width:.70359337;stroke-opacity:1" id="rect4177" width="69.652" height="18.479" x="478.728" y="343.087"/><text id="text4179" x="491.346" y="355.417" xml:space="preserve" style="font-size:11px;font-style:normal;font-weight:400;line-height:125%;letter-spacing:0;word-spacing:0;fill:#000;fill-opacity:1;stroke:none;font-family:Sans"><tspan id="tspan4181" x="491.346" y="355.417">y_2014</tspan></text><rect id="rect4183" width="69.652" height="18.479" x="549.718" y="343.087" style="fill:#fff;fill-opacity:1;stroke:#000;stroke-width:.70359337;stroke-opacity:1"/><text style="font-size:11px;font-style:normal;font-weight:400;line-height:125%;letter-spacing:0;word-spacing:0;fill:#000;fill-opacity:1;stroke:none;font-family:Sans" id="text4185" x="573.718" y="354.037" xml:space="preserve"><tspan id="tspan4187" x="573.718" y="354.037">y_...</tspan></text></g><path style="fill:none;stroke:#000;stroke-width:1px;stroke-linecap:butt;stroke-linejoin:miter;stroke-opacity:1;marker-start:url(#Arrow1Lstart);marker-end:url(#Arrow1Lend)" id="path4213" d="m 228.29448,325.05235 c 31.65144,32.32488 64.64976,32.32488 98.99494,0"/><path style="fill:none;stroke:#000;stroke-width:1px;stroke-linecap:butt;stroke-linejoin:miter;stroke-opacity:1;marker-start:url(#Arrow1Lstart);marker-end:url(#Arrow1Lend)" id="path4845" d="m 423.25392,126.0523 c 72.38287,31.97363 146.49938,40.54311 224.25386,0"/></g></svg>